<svg width="46" height="46" fill="none" stroke="white" stroke-linecap="round" stroke-linejoin="round" stroke-width="1.5" viewBox="0 0 24 24" xmlns="http://www.w3.org/2000/svg">
  <path d="M20 12V5.749a.6.6 0 0 0-.176-.425l-3.148-3.148A.6.6 0 0 0 16.252 2H4.6a.6.6 0 0 0-.6.6v18.8a.6.6 0 0 0 .6.6H11"></path>
  <path d="M8 14h3m-3-4h8-8Zm0-4h4-4Z"></path>
  <path fill="currentColor" d="M16 5.4V2.354a.354.354 0 0 1 .604-.25l3.292 3.292a.353.353 0 0 1-.25.604H16.6a.6.6 0 0 1-.6-.6Z"></path>
  <path d="m17.954 16.938 1.586 1.586m-1.586-1.586 1-1a1.121 1.121 0 0 1 1.586 1.586l-1 1-1.586-1.586Zm0 0-2.99 2.99a1 1 0 0 0-.282.554l-.242 1.556 1.556-.242a1 1 0 0 0 .553-.281l2.991-2.991-1.586-1.586Z"></path>
</svg>